<?xml version="1.0" standalone="no"?>
<!DOCTYPE svg PUBLIC "-//W3C//DTD SVG 20010904//EN"
 "http://www.w3.org/TR/2001/REC-SVG-20010904/DTD/svg10.dtd">
<svg version="1.0" xmlns="http://www.w3.org/2000/svg"
 width="200.000000pt" height="200.000000pt" viewBox="0 0 200.000000 200.000000"
 preserveAspectRatio="xMidYMid meet">
<metadata>
Created by potrace 1.14, written by Peter Selinger 2001-2017
</metadata>
<g transform="translate(0.000000,200.000000) scale(0.100000,-0.100000)"
fill="#000000" stroke="none">
<path d="M819 1310 c-40 -10 -45 -110 -7 -134 21 -13 60 18 51 40 -6 15 -6 15
50 18 21 1 40 -1 43 -5 2 -4 5 -76 6 -160 l1 -153 -26 -1 c-51 -3 -72 -39 -39
-67 24 -20 199 -19 213 3 20 32 2 61 -40 63 l-31 1 0 160 0 161 45 0 c25 0 45
-3 46 -6 8 -57 41 -79 69 -45 15 18 15 104 0 119 -11 11 -340 15 -381 6z"/>
<path d="M819 752 c-23 -16 -24 -35 -4 -52 17 -14 297 -22 344 -10 37 9 50 36
28 57 -16 16 -38 18 -184 18 -121 0 -171 -3 -184 -13z"/>
</g>
</svg>
